<?xml version="1.0" encoding="UTF-8" standalone="no"?>
<!-- Created with Inkscape (http://www.inkscape.org/) -->

<svg
   xmlns:dc="http://purl.org/dc/elements/1.1/"
   xmlns:cc="http://creativecommons.org/ns#"
   xmlns:rdf="http://www.w3.org/1999/02/22-rdf-syntax-ns#"
   xmlns:svg="http://www.w3.org/2000/svg"
   xmlns="http://www.w3.org/2000/svg"
   xmlns:xlink="http://www.w3.org/1999/xlink"
   xmlns:sodipodi="http://sodipodi.sourceforge.net/DTD/sodipodi-0.dtd"
   xmlns:inkscape="http://www.inkscape.org/namespaces/inkscape"
   width="300"
   height="46.299568"
   id="svg2"
   version="1.1"
   inkscape:version="0.91pre2 r13516"
   viewBox="0 0 300 46.299569"
   sodipodi:docname="British Airways.svg">
  <defs
     id="defs4">
    <linearGradient
       id="linearGradient4359"
       spreadMethod="pad"
       gradientTransform="matrix(-10.886,-18.854,-18.854,10.886,989.985,85.744)"
       gradientUnits="userSpaceOnUse"
       y2="0"
       x2="1"
       y1="0"
       x1="0">
      <stop
         id="stop4361"
         offset="0"
         style="stop-opacity:1;stop-color:#e4e6f5" />
      <stop
         id="stop4363"
         offset="0.29476787"
         style="stop-opacity:1;stop-color:#4d72bf" />
      <stop
         id="stop4365"
         offset="0.4"
         style="stop-opacity:1;stop-color:#4d72bf" />
      <stop
         id="stop4367"
         offset="0.9"
         style="stop-opacity:1;stop-color:#1e5aaf" />
      <stop
         id="stop4369"
         offset="1"
         style="stop-opacity:1;stop-color:#1e5aaf" />
    </linearGradient>
    <clipPath
       id="clipPath4377"
       clipPathUnits="userSpaceOnUse">
      <path
         inkscape:connector-curvature="0"
         id="path4379"
         d="m 1178.067,90.756 -265.403,0 0,-21.602 265.403,0 0,21.602 z" />
    </clipPath>
    <linearGradient
       inkscape:collect="always"
       xlink:href="#linearGradient4359"
       id="linearGradient4302"
       gradientUnits="userSpaceOnUse"
       gradientTransform="matrix(-10.886,-18.854,-18.854,10.886,989.985,85.744)"
       spreadMethod="pad"
       x1="0"
       y1="0"
       x2="1"
       y2="0" />
  </defs>
  <sodipodi:namedview
     id="base"
     pagecolor="#ffffff"
     bordercolor="#666666"
     borderopacity="1.0"
     inkscape:pageopacity="0.0"
     inkscape:pageshadow="2"
     inkscape:zoom="1.4"
     inkscape:cx="219.71319"
     inkscape:cy="76.284297"
     inkscape:document-units="px"
     inkscape:current-layer="layer1"
     showgrid="false"
     fit-margin-top="0"
     fit-margin-left="0"
     fit-margin-right="0"
     fit-margin-bottom="0"
     inkscape:window-width="1366"
     inkscape:window-height="706"
     inkscape:window-x="-8"
     inkscape:window-y="-8"
     inkscape:window-maximized="1" />
  <metadata
     id="metadata7">
    <rdf:RDF>
      <cc:Work
         rdf:about="">
        <dc:format>image/svg+xml</dc:format>
        <dc:type
           rdf:resource="http://purl.org/dc/dcmitype/StillImage" />
        <dc:title></dc:title>
      </cc:Work>
    </rdf:RDF>
  </metadata>
  <g
     inkscape:label="Layer 1"
     inkscape:groupmode="layer"
     id="layer1"
     transform="translate(-164.30688,-782.04542)">
    <g
       id="g4304"
       transform="matrix(1.0001889,0,0,1.0001889,-0.03103489,-0.15646086)">
      <g
         transform="matrix(2.0560945,0,0,2.0560945,-45.735115,-767.17434)"
         id="g4240">
        <g
           id="g4349"
           transform="matrix(0.68998832,0,0,-0.68998832,-441.28999,816.10153)">
          <g
             id="g4351">
            <g
               id="g4357">
              <path
                 d="m 993.093,82.8 c -2.439,-2.424 -7.723,-4.505 -10.323,-5.48 -3.552,-1.334 -5.128,-1.806 -7.116,-2.453 -2.249,-0.73 -6.749,-2.092 -6.749,-2.092 9.322,-2.782 15.89,-3.621 15.89,-3.621 0,0 3.06,0.945 7.908,3.537 2.625,1.335 3.917,2.233 4.842,3.092 0.339,0.307 1.22,1.223 1.439,2.396 0.014,0.085 0.056,0.309 0.056,0.529 0,0 0,0.156 -0.014,0.291 -0.004,0.156 -0.033,0.26 -0.033,0.26 0,0 -0.051,0.277 -0.119,0.472 -0.072,0.196 -0.372,0.797 -0.858,1.188 -0.326,0.264 -0.886,0.921 -2.919,1.636 -0.692,0.24 -1.81,0.462 -1.81,0.462 L 993.093,82.8"
                 style="fill:url(#linearGradient4302);stroke:none"
                 id="path4371"
                 inkscape:connector-curvature="0" />
            </g>
          </g>
        </g>
        <g
           id="g4373"
           transform="matrix(0.68998832,0,0,-0.68998832,-441.28999,816.10153)">
          <g
             id="g4375"
             clip-path="url(#clipPath4377)">
            <g
               id="g4381"
               transform="translate(999.04,78.772)">
              <path
                 d="m 0,0 c 0,0 -0.014,0.259 -0.077,0.479 -0.05,0.196 -0.137,0.383 -0.268,0.58 -0.159,0.234 -0.373,0.508 -0.69,0.812 -0.241,0.225 -0.503,0.425 -0.817,0.637 -1.272,0.833 -2.913,1.302 -4.366,1.501 -2.25,0.299 -4.832,0.247 -5.077,0.255 C -12.125,4.276 -17.49,4.232 -18.87,4.207 -24.995,4.08 -32.493,4.064 -34.458,4.064 -54.733,3.971 -63.56,4.408 -73.383,6.377 c -8.357,1.66 -12.993,3.237 -12.993,3.237 7.371,0.255 50.378,2.04 58.224,2.248 5.138,0.145 8.784,0.176 11.702,0.007 1.497,-0.083 2.889,-0.211 4.637,-0.508 1.569,-0.268 2.993,-0.723 3.823,-1.031 1.748,-0.647 3.22,-1.583 3.947,-2.542 0,0 0.216,-0.22 0.507,-0.612 0.328,-0.455 0.708,-1.016 0.837,-1.225 1.063,-1.61 1.569,-2.623 1.744,-2.976 0.19,-0.37 0.357,-0.755 0.52,-1.132 0.16,-0.374 0.225,-0.601 0.277,-0.759 0.111,-0.396 0.14,-0.758 0.144,-0.838 L 0,0"
                 style="fill:#ed1b28;fill-opacity:1;fill-rule:nonzero;stroke:none"
                 id="path4383"
                 inkscape:connector-curvature="0" />
            </g>
          </g>
        </g>
      </g>
      <g
         transform="matrix(2.0328317,0,0,2.0328317,-352.4592,-728.79729)"
         id="g4250">
        <g
           id="g4341"
           transform="matrix(0.68998832,0,0,-0.68998832,305.71621,765.81173)">
          <path
             d="m 0,0 c 0.316,0.142 0.651,0.64 0.651,1.292 l 0,5.397 c -0.776,0.087 -1.861,0.125 -3.078,0.125 -1.235,0 -2.328,-0.038 -3.124,-0.125 l 0,-5.397 C -5.551,0.64 -5.223,0.165 -4.903,0 l -4.299,0 c 0.319,0.142 0.659,0.64 0.659,1.292 l 0,11.906 c 0,0.661 -0.34,1.148 -0.659,1.308 l 4.299,0 c -0.32,-0.16 -0.648,-0.647 -0.648,-1.308 l 0,-4.877 c 0.796,-0.084 1.869,-0.125 3.124,-0.125 1.217,0 2.302,0.053 3.078,0.125 l 0,4.877 c 0,0.661 -0.335,1.148 -0.651,1.308 l 4.291,0 C 3.97,14.346 3.652,13.859 3.652,13.198 l 0,-11.906 C 3.652,0.64 3.97,0.165 4.291,0 L 0,0 Z m -13.943,3.282 c 0,2.763 -6.507,3.386 -6.507,7.796 0,2.731 2.597,3.625 4.881,3.625 1.018,0 2.493,-0.141 3.424,-0.57 l 0.162,-2.712 c -0.572,1.198 -2.006,2.066 -3.338,2.066 -1.052,0 -2.156,-0.521 -2.156,-1.725 0,-2.866 6.618,-3.566 6.618,-7.742 0,-3.033 -2.648,-4.288 -5.323,-4.288 -1.398,0 -3.301,0.268 -4.48,1.075 -0.072,0.485 -0.105,0.993 -0.105,1.488 0,0.592 0.053,1.187 0.14,1.77 0.737,-1.677 2.259,-2.989 4.162,-2.989 1.446,0 2.522,0.631 2.522,2.206 z M -27.099,0 c 0.357,0.165 0.731,0.64 0.731,1.292 l 0,11.906 c 0,0.661 -0.374,1.129 -0.731,1.308 l 4.465,0 c -0.38,-0.179 -0.743,-0.647 -0.743,-1.308 l 0,-11.906 c 0,-0.652 0.363,-1.127 0.743,-1.292 l -4.465,0 z m -9.988,0 c 0.477,0.219 0.711,0.784 0.711,1.292 l 0,11.55 -3.205,0 c -0.74,0 -1.62,-0.09 -2.257,-0.468 l 0.997,2.132 10.632,0 c 0.862,0 1.743,0.019 2.579,0.197 -0.404,-1.092 -1.61,-1.901 -2.305,-1.901 -0.844,0.02 -2.242,0.075 -3.445,0.075 l 0,-11.585 c 0,-0.508 0.251,-1.073 0.721,-1.292 l -4.428,0 z m -9.687,0 c 0.36,0.165 0.736,0.64 0.736,1.292 l 0,11.906 c 0,0.661 -0.376,1.129 -0.736,1.308 l 4.464,0 c -0.384,-0.179 -0.733,-0.647 -0.733,-1.308 l 0,-11.906 c 0,-0.652 0.349,-1.127 0.733,-1.292 l -4.464,0 z m -2.976,-0.085 c -0.557,0 -1.17,-0.02 -1.701,0.137 -0.988,0.292 -2.35,2.516 -2.893,3.389 -0.843,1.419 -1.575,3.373 -3.465,3.394 l 0,-5.543 c 0,-0.485 0.22,-1.073 0.688,-1.292 l -4.356,0 c 0.457,0.24 0.676,0.784 0.676,1.292 l 0,11.906 c 0,0.504 -0.219,1.056 -0.676,1.308 l 5.245,0 c 2.282,0 5.137,-0.876 5.137,-3.617 0,-2.301 -1.902,-3.48 -4.025,-3.48 3.02,-0.017 4.793,-7.101 8.127,-7.122 -0.894,-0.264 -1.826,-0.372 -2.757,-0.372 z m -7.314,13.342 c -0.26,0 -0.488,-0.042 -0.745,-0.079 l 0,-5.016 c 0.238,-0.016 0.453,-0.041 0.688,-0.041 1.633,0 2.84,0.901 2.84,2.676 0,1.813 -1.187,2.46 -2.783,2.46 z M -69.692,6.814 c -0.414,0 -0.787,0 -1.292,-0.038 l 0,-5.361 c 0.63,-0.123 1.31,-0.163 1.937,-0.163 1.456,0 2.936,0.648 2.936,2.873 0,2.195 -1.75,2.689 -3.581,2.689 z m -0.362,6.443 c -0.264,0 -0.445,0 -0.93,-0.059 l 0,-5.077 0.574,0 c 1.739,0 3.421,0.537 3.421,2.552 0,2 -1.344,2.584 -3.065,2.584 z M -74.648,0 c 0.467,0.24 0.676,0.807 0.676,1.292 l 0,11.906 c 0,0.504 -0.209,1.056 -0.676,1.308 l 5.675,0 c 2.531,0 4.999,-1.036 4.999,-3.909 0,-1.523 -1.328,-2.725 -2.76,-2.996 2.062,0.02 4.056,-1.241 4.056,-3.517 C -62.678,0.83 -66.09,0 -68.491,0 l -6.157,0"
             style="fill:#1e5aaf;fill-opacity:1;fill-rule:nonzero;stroke:none"
             id="path4343"
             inkscape:connector-curvature="0" />
        </g>
        <g
           id="g4345"
           transform="matrix(0.68998832,0,0,-0.68998832,369.43525,763.54719)">
          <path
             d="m 0,0 c 0,2.763 -6.508,3.386 -6.508,7.796 0,2.731 2.59,3.625 4.875,3.625 1.023,0 2.488,-0.141 3.426,-0.569 L 1.954,8.139 c -0.579,1.198 -2.007,2.066 -3.339,2.066 -1.055,0 -2.15,-0.521 -2.15,-1.725 0,-2.866 6.618,-3.566 6.618,-7.742 0,-3.033 -2.631,-4.288 -5.324,-4.288 -1.399,0 -3.305,0.268 -4.487,1.076 -0.077,0.484 -0.113,0.992 -0.113,1.487 0,0.593 0.056,1.187 0.145,1.77 0.736,-1.677 2.264,-2.988 4.166,-2.988 C -1.078,-2.205 0,-1.574 0,0 Z m -8.043,9.701 -3.436,-6.026 0,-5.665 c 0,-0.462 0.189,-1.073 0.648,-1.292 l -4.274,0 c 0.436,0.24 0.637,0.847 0.637,1.292 l 0,5.684 -2.987,4.786 c -0.267,0.447 -1.512,2.533 -3.03,2.533 0.412,0.156 1.668,0.396 2.51,0.396 1.405,0 2.102,-0.129 2.963,-1.476 l 2.763,-4.381 c 0.232,0.43 2.42,4.235 2.42,4.235 0.264,0.464 0.446,0.79 0.446,0.953 0,0.208 -0.09,0.344 -0.302,0.484 l 3.08,0 C -7.211,10.935 -7.712,10.272 -8.043,9.701 Z M -21.151,-3.282 c 0.15,0.142 0.264,0.248 0.264,0.505 0,0.087 -0.043,0.23 -0.131,0.502 0,0 -1.184,3.242 -1.328,3.619 -0.902,0.11 -1.834,0.11 -2.748,0.11 -0.857,0 -1.739,-0.021 -2.602,-0.11 -0.124,-0.324 -1.391,-3.549 -1.391,-3.549 -0.185,-0.437 -0.234,-0.585 -0.234,-0.68 0,-0.216 0.177,-0.32 0.333,-0.397 l -2.92,0 c 0.432,0.219 0.803,0.668 0.984,1.117 l 4.816,12.385 c 0.013,0.052 0.027,0.109 0.027,0.179 0,0.341 -0.227,0.665 -0.54,0.825 l 3.766,0 4.88,-13.377 c 0.202,-0.537 0.632,-0.929 0.988,-1.129 l -4.164,0 z m -3.785,11.746 -2.199,-5.649 c 0.662,-0.072 1.343,-0.087 2.003,-0.087 0.753,0 1.515,0 2.25,0.087 l -2.054,5.649 z m -5.272,1.344 -4.407,-13.09 c -0.363,0 -0.72,0.125 -0.922,0.267 -0.435,0.42 -1.121,2.174 -1.37,2.82 l -1.99,5.034 -2.87,-8.121 -1.366,0 -4.934,13.122 c -0.213,0.559 -0.573,1.095 -1.111,1.384 l 4.287,0 c -0.18,-0.14 -0.305,-0.299 -0.305,-0.604 0,-0.147 0.073,-0.348 0.125,-0.505 l 3.213,-8.682 3.42,9.791 3.768,-9.439 2.854,8.544 c 0.071,0.232 0.113,0.318 0.113,0.464 0,0.179 -0.078,0.291 -0.257,0.431 l 2.838,0 c -0.524,-0.276 -0.903,-0.876 -1.086,-1.416 z M -48.305,-3.367 c -0.555,0 -1.155,-0.02 -1.7,0.137 -0.988,0.292 -2.349,2.516 -2.891,3.389 -0.839,1.419 -1.933,3.394 -3.811,3.394 l 0,-5.543 c 0,-0.484 0.212,-1.073 0.672,-1.292 l -4.352,0 c 0.467,0.24 0.684,0.784 0.684,1.292 l 0,11.906 c 0,0.504 -0.217,1.056 -0.684,1.308 l 5.257,0 c 2.275,0 5.125,-0.876 5.125,-3.617 0,-2.301 -2.08,-3.48 -3.652,-3.48 3.129,-0.18 5.017,-7.122 8.122,-7.122 -0.9,-0.264 -1.831,-0.372 -2.77,-0.372 z m -7.678,13.342 c -0.242,0 -0.473,-0.042 -0.724,-0.079 l 0,-5.016 c 0.233,-0.016 0.446,-0.041 0.672,-0.041 1.637,0 2.842,0.901 2.842,2.676 0,1.813 -1.192,2.46 -2.79,2.46 z M -67.228,-3.282 c 0.36,0.165 0.733,0.64 0.733,1.292 l 0,11.906 c 0,0.661 -0.373,1.129 -0.733,1.308 l 4.461,0 c -0.379,-0.179 -0.732,-0.647 -0.732,-1.308 l 0,-11.906 c 0,-0.652 0.353,-1.127 0.732,-1.292 l -4.461,0 z m -8.685,11.746 -2.2,-5.649 c 0.655,-0.072 1.335,-0.087 1.999,-0.087 0.76,0 1.512,0 2.251,0.087 l -2.05,5.649 z m 3.789,-11.746 c 0.14,0.142 0.264,0.248 0.264,0.505 0,0.087 -0.032,0.23 -0.138,0.502 0,0 -1.192,3.242 -1.332,3.619 -0.895,0.11 -1.827,0.11 -2.74,0.11 -0.867,0 -1.746,-0.021 -2.605,-0.11 -0.122,-0.324 -1.399,-3.549 -1.399,-3.549 -0.172,-0.437 -0.231,-0.585 -0.231,-0.68 0,-0.216 0.185,-0.32 0.342,-0.397 l -2.919,0 c 0.43,0.219 0.804,0.668 0.987,1.117 l 4.8,12.385 c 0.021,0.052 0.03,0.109 0.03,0.179 0,0.341 -0.228,0.665 -0.533,0.825 l 3.765,0 4.88,-13.377 c 0.199,-0.537 0.625,-0.929 0.983,-1.129 l -4.154,0"
             style="fill:#1e5aaf;fill-opacity:1;fill-rule:nonzero;stroke:none"
             id="path4347"
             inkscape:connector-curvature="0" />
        </g>
      </g>
    </g>
  </g>
</svg>
